<svg width="70" height="71" viewBox="0 0 70 71" fill="none" xmlns="http://www.w3.org/2000/svg">
<g clip-path="url(#clip0_55_10)">
<g clip-path="url(#clip1_55_10)">
<g clip-path="url(#clip2_55_10)">
<mask id="mask0_55_10" style="mask-type:luminance" maskUnits="userSpaceOnUse" x="0" y="0" width="70" height="71">
<path d="M0 0.779785H70V70.7798H0V0.779785Z" fill="white"/>
</mask>
<g mask="url(#mask0_55_10)">
<path d="M9.01701 56.3174C19.2278 69.1804 39.2516 65.9978 43.8929 49.9522C44.1581 49.1566 44.2907 48.2283 44.4233 47.4326C33.6821 45.0457 23.206 37.2218 22.2778 27.8066C21.4821 19.3197 30.1017 16.8002 35.8038 21.574C42.5668 27.2762 47.3407 35.6305 47.7385 44.515C54.6342 45.4433 61.3972 43.5868 65.1102 36.8238C71.3428 25.4197 62.9885 10.0369 51.8494 5.52825C50.6559 5.13043 51.1864 3.27391 52.3798 3.67174C67.7624 8.04803 75.7189 29.5305 65.2428 42.2607C61.132 47.1674 54.5016 48.7585 47.6059 47.9629C46.6777 56.9802 39.6494 64.1411 31.2954 66.9258C21.615 70.1084 12.7302 65.4674 7.0281 57.9085C6.09962 56.715 8.08896 55.2565 9.01701 56.3174ZM38.7212 29.5305C36.5995 26.6132 33.8147 23.298 30.2343 22.1045C26.7867 20.911 25.593 25.6849 25.4606 27.8066C25.328 30.4588 27.1845 32.8457 28.9084 34.7023C32.4886 38.8129 38.456 42.3935 44.556 43.9846C44.1581 38.8129 41.6386 33.774 38.7212 29.5305Z" fill="#F8CB1E"/>
<path d="M1.59129 51.4111C5.30432 51.4111 9.14996 51.6763 12.7304 52.6046C14.1888 53.0024 13.526 54.9915 12.0671 54.7263C9.14975 54.1959 6.09976 54.3285 3.18238 54.4611C3.31499 56.1848 3.44759 58.0413 3.71281 59.7652C3.97803 61.0913 4.90628 63.0804 4.11063 64.4065C3.71281 65.0697 3.04977 65.0697 2.38673 64.8043C0.795434 64.1413 0.795437 61.3565 0.530221 59.8978C0.132396 57.5106 0 55.2565 0 52.8693C0 52.0741 0.795647 51.4111 1.59129 51.4111Z" fill="#F8CB1E"/>
</g>
</g>
</g>
</g>
<defs>
<clipPath id="clip0_55_10">
<rect width="70" height="70" fill="white" transform="translate(0 0.779785)"/>
</clipPath>
<clipPath id="clip1_55_10">
<rect width="70" height="70" fill="white" transform="translate(0 0.779785)"/>
</clipPath>
<clipPath id="clip2_55_10">
<rect width="70" height="70" fill="white" transform="translate(0 0.779785)"/>
</clipPath>
</defs>
</svg>
